<svg xmlns="http://www.w3.org/2000/svg" viewBox="0 0 520 400" fill="none" aria-hidden="true">
  <defs>
    <linearGradient id="hw-bg" x1="0%" y1="0%" x2="100%" y2="100%">
      <stop offset="0%" stop-color="#18181b"/>
      <stop offset="100%" stop-color="#0c0c0e"/>
    </linearGradient>
    <linearGradient id="hw-glow" x1="50%" y1="0%" x2="50%" y2="100%">
      <stop offset="0%" stop-color="#4ade80" stop-opacity="0.25"/>
      <stop offset="70%" stop-color="#4ade80" stop-opacity="0"/>
    </linearGradient>
    <filter id="hw-blur" x="-20%" y="-20%" width="140%" height="140%">
      <feGaussianBlur stdDeviation="24" result="b"/>
      <feMerge>
        <feMergeNode in="b"/>
        <feMergeNode in="SourceGraphic"/>
      </feMerge>
    </filter>
  </defs>
  <rect width="520" height="400" rx="28" fill="url(#hw-bg)" stroke="#27272a" stroke-width="1"/>
  <ellipse cx="260" cy="60" rx="200" ry="80" fill="url(#hw-glow)" opacity="0.9"/>
  <rect x="36" y="56" width="448" height="308" rx="14" fill="#09090b" stroke="#3f3f46" stroke-width="1"/>
  <rect x="36" y="56" width="448" height="36" rx="14" fill="#18181b"/>
  <path d="M36 82h448" stroke="#27272a"/>
  <circle cx="58" cy="74" r="5" fill="#3f3f46"/>
  <circle cx="78" cy="74" r="5" fill="#3f3f46"/>
  <circle cx="98" cy="74" r="5" fill="#4ade80" opacity="0.6"/>
  <rect x="200" y="66" width="120" height="16" rx="4" fill="#27272a"/>
  <rect x="52" y="118" width="72" height="220" rx="6" fill="#0c0c0e" stroke="#27272a"/>
  <rect x="60" y="132" width="48" height="6" rx="2" fill="#3f3f46"/>
  <rect x="60" y="148" width="36" height="6" rx="2" fill="#4ade80" opacity="0.5"/>
  <rect x="60" y="164" width="52" height="6" rx="2" fill="#3f3f46"/>
  <rect x="60" y="180" width="40" height="6" rx="2" fill="#3f3f46"/>
  <rect x="136" y="118" width="332" height="220" rx="6" fill="#0c0c0e" stroke="#27272a"/>
  <rect x="152" y="138" width="180" height="8" rx="2" fill="#3f3f46"/>
  <rect x="152" y="156" width="240" height="8" rx="2" fill="#3f3f46"/>
  <rect x="152" y="174" width="200" height="8" rx="2" fill="#4ade80" opacity="0.45"/>
  <rect x="152" y="192" width="260" height="8" rx="2" fill="#3f3f46"/>
  <rect x="152" y="210" width="140" height="8" rx="2" fill="#3f3f46"/>
  <rect x="152" y="228" width="220" height="8" rx="2" fill="#4ade80" opacity="0.25"/>
  <rect x="152" y="246" width="100" height="8" rx="2" fill="#3f3f46"/>
  <rect x="360" y="280" width="92" height="36" rx="8" fill="#4ade80" opacity="0.15" stroke="#4ade80" stroke-opacity="0.4"/>
  <path d="M388 298h36M406 290v16" stroke="#4ade80" stroke-width="2" stroke-linecap="round" opacity="0.8"/>
  <circle cx="420" cy="152" r="28" fill="#4ade80" opacity="0.08" filter="url(#hw-blur)"/>
  <path d="M408 152l8 8 16-20" stroke="#4ade80" stroke-width="2.5" stroke-linecap="round" stroke-linejoin="round" opacity="0.85"/>
</svg>
